<svg width="15" height="17" viewBox="0 0 15 17" fill="none" xmlns="http://www.w3.org/2000/svg">
<path d="M13.3333 1.66667H12.5V0.833333C12.5 0.375 12.125 0 11.6667 0C11.2083 0 10.8333 0.375 10.8333 0.833333V1.66667H4.16667V0.833333C4.16667 0.375 3.79167 0 3.33333 0C2.875 0 2.5 0.375 2.5 0.833333V1.66667H1.66667C0.741667 1.66667 0.00833333 2.41667 0.00833333 3.33333L0 15C0 15.9167 0.741667 16.6667 1.66667 16.6667H13.3333C14.25 16.6667 15 15.9167 15 15V3.33333C15 2.41667 14.25 1.66667 13.3333 1.66667ZM13.3333 14.1667C13.3333 14.625 12.9583 15 12.5 15H2.5C2.04167 15 1.66667 14.625 1.66667 14.1667V5.83333H13.3333V14.1667ZM3.33333 7.5H5V9.16667H3.33333V7.5ZM6.66667 7.5H8.33333V9.16667H6.66667V7.5ZM10 7.5H11.6667V9.16667H10V7.5Z" fill="#76808C" fill-opacity="0.5"/>
</svg>
