<svg width="22" height="21" viewBox="0 0 22 21" fill="none" xmlns="http://www.w3.org/2000/svg">
<path d="M20.2587 6.84687L14.2087 6.32187L11.8462 0.759375C11.4212 -0.253125 9.9712 -0.253125 9.5462 0.759375L7.1837 6.33437L1.1462 6.84687C0.0461968 6.93437 -0.403803 8.30938 0.433697 9.03438L5.0212 13.0094L3.6462 18.9094C3.3962 19.9844 4.5587 20.8344 5.5087 20.2594L10.6962 17.1344L15.8837 20.2719C16.8337 20.8469 17.9962 19.9969 17.7462 18.9219L16.3712 13.0094L20.9587 9.03438C21.7962 8.30938 21.3587 6.93437 20.2587 6.84687ZM10.6962 14.7969L5.9962 17.6344L7.2462 12.2844L3.0962 8.68437L8.5712 8.20938L10.6962 3.17187L12.8337 8.22188L18.3087 8.69688L14.1587 12.2969L15.4087 17.6469L10.6962 14.7969Z" fill="#76808C"/>
</svg>
