<svg width="19" height="17" viewBox="0 0 19 17" fill="none" xmlns="http://www.w3.org/2000/svg">
<path d="M16.1413 0.905253C13.7289 -0.739575 10.75 0.0280116 9.1417 1.91043C7.53342 0.0280116 4.55445 -0.748713 2.14204 0.905253C0.86273 1.78249 0.0585919 3.26284 0.00376435 4.82543C-0.124167 8.37094 3.01928 11.2128 7.8167 15.5716L7.90807 15.6539C8.60256 16.2844 9.67169 16.2844 10.3662 15.6447L10.4667 15.5534C15.2641 11.2037 18.3984 8.3618 18.2796 4.81629C18.2248 3.26284 17.4207 1.78249 16.1413 0.905253ZM9.23307 14.2101L9.1417 14.3015L9.05031 14.2101C4.70066 10.2716 1.83135 7.66732 1.83135 5.02646C1.83135 3.19887 3.20204 1.82818 5.02963 1.82818C6.43687 1.82818 7.80756 2.73284 8.29187 3.98474H10.0007C10.4758 2.73284 11.8465 1.82818 13.2538 1.82818C15.0813 1.82818 16.452 3.19887 16.452 5.02646C16.452 7.66732 13.5827 10.2716 9.23307 14.2101Z" fill="#F3F3F3"/>
</svg>
