<svg width="14" height="14" viewBox="0 0 14 14" fill="none" xmlns="http://www.w3.org/2000/svg">
<path d="M13.4297 0.315104C13.0234 -0.0911456 12.3672 -0.0911456 11.9609 0.315104L6.86719 5.39844L1.77344 0.304687C1.36719 -0.101562 0.710937 -0.101562 0.304687 0.304687C-0.101562 0.710937 -0.101562 1.36719 0.304687 1.77344L5.39844 6.86719L0.304687 11.9609C-0.101562 12.3672 -0.101562 13.0234 0.304687 13.4297C0.710937 13.8359 1.36719 13.8359 1.77344 13.4297L6.86719 8.33594L11.9609 13.4297C12.3672 13.8359 13.0234 13.8359 13.4297 13.4297C13.8359 13.0234 13.8359 12.3672 13.4297 11.9609L8.33594 6.86719L13.4297 1.77344C13.8255 1.3776 13.8255 0.710938 13.4297 0.315104Z" fill="#76808C"/>
</svg>
