<svg width="18" height="16" viewBox="0 0 18 16" fill="none" xmlns="http://www.w3.org/2000/svg">
<path d="M4.57566 0H16.1908C17.3523 0 17.5986 0.626739 17.5986 1.39275V10.4456C17.5986 10.8287 17.4754 11.2935 16.8947 11.2935C16.3139 11.2935 16.1908 10.8287 16.1908 10.4456V2.08913C16.1908 1.70612 15.7156 1.39275 15.1348 1.39275H4.57566C3.99491 1.39275 3.51974 1.07938 3.51974 0.696376C3.51974 0.313369 3.99491 0 4.57566 0ZM1.40792 2.78553H13.023C14.1845 2.78553 14.7828 3.41227 14.7828 4.17829V13.9276C14.7828 14.6936 14.1845 15.3203 13.023 15.3203H1.40792C0.246412 15.3203 -1.14441e-05 14.6936 -1.14441e-05 13.9276V4.17829C-1.14441e-05 3.41227 0.246412 2.78553 1.40792 2.78553ZM2.46384 13.9276H11.9671C12.5479 13.9276 13.023 13.6142 13.023 13.2312V4.87466C13.023 4.49166 12.5479 4.17829 11.9671 4.17829H2.46384C1.88309 4.17829 1.40792 4.49166 1.40792 4.87466V13.2312C1.40792 13.6142 1.88309 13.9276 2.46384 13.9276Z" fill="#76808C"/>
</svg>
