<svg width="18" height="16" viewBox="0 0 18 16" fill="none" xmlns="http://www.w3.org/2000/svg">
<path d="M1.25633 0L16.1907 0.0561523C17.3523 0.0561523 17.3131 0.733986 17.3131 1.5L17.3131 9L17.2563 13.9837C17.2563 13.9837 17.5986 15.3765 16.5119 15.3765H1.4079C0.246393 15.3765 -3.05176e-05 14.7497 -3.05176e-05 13.9837V1.4489C-3.05176e-05 0.682891 0.0948184 0 1.25633 0ZM2.46382 13.9837L15.2563 14C16.2563 14 16.1907 14 16.1907 13.7994C16.1907 13.7994 16.1907 6.76847 16.1907 2.14528C16.1907 1.76227 16.3371 1 15.7563 1H8.25633H2.25635C1.25635 1 1.25635 1 1.25633 2L1.4079 13.2873C1.4079 13.6703 1.88307 13.9837 2.46382 13.9837Z" fill="#76808C"/>
</svg>
